<?xml version="1.0" encoding="UTF-8" standalone="no"?>
<svg
   width="20"
   height="19.666729"
   version="1.1"
   id="svg2884"
   sodipodi:docname="icon-github-footer.svg"
   inkscape:version="1.2.1 (9c6d41e410, 2022-07-14)"
   xmlns:inkscape="http://www.inkscape.org/namespaces/inkscape"
   xmlns:sodipodi="http://sodipodi.sourceforge.net/DTD/sodipodi-0.dtd"
   xmlns="http://www.w3.org/2000/svg"
   xmlns:svg="http://www.w3.org/2000/svg">
  <defs
     id="defs2888" />
  <sodipodi:namedview
     id="namedview2886"
     pagecolor="#ffffff"
     bordercolor="#000000"
     borderopacity="0.25"
     inkscape:showpageshadow="2"
     inkscape:pageopacity="0.0"
     inkscape:pagecheckerboard="0"
     inkscape:deskcolor="#d1d1d1"
     showgrid="false"
     inkscape:zoom="10.697917"
     inkscape:cx="49.028238"
     inkscape:cy="47.953262"
     inkscape:window-width="2560"
     inkscape:window-height="1369"
     inkscape:window-x="-8"
     inkscape:window-y="-8"
     inkscape:window-maximized="1"
     inkscape:current-layer="svg2884" />
  <path
     fill-rule="evenodd"
     clip-rule="evenodd"
     d="M 10.008275,0 C 4.4739572,0 0,4.5069398 0,10.082639 c 0,4.456954 2.8666186,8.229672 6.8433784,9.564956 0.4971974,0.100381 0.6793188,-0.216948 0.6793188,-0.483882 0,-0.233746 -0.016389,-1.034957 -0.016389,-1.869765 C 4.7222487,17.89501 4.1424923,16.092029 4.1424923,16.092029 3.6950761,14.923502 3.0321462,14.623176 3.0321462,14.623176 2.1209249,14.00552 3.0985211,14.00552 3.0985211,14.00552 c 1.0107837,0.06678 1.5411686,1.034958 1.5411686,1.034958 0.8946276,1.535637 2.3362337,1.101742 2.9161949,0.834603 0.082764,-0.651048 0.3480587,-1.101742 0.6297425,-1.352082 C 5.9651397,14.289253 3.628906,13.421257 3.628906,9.5483618 c 0,-1.1017419 0.3974302,-2.0031299 1.0271726,-2.7041639 -0.099358,-0.25034 -0.4474162,-1.2855022 0.099562,-2.6709765 0,0 0.8450512,-0.2671386 2.7504624,1.0349573 a 9.6223166,9.6223166 0 0 1 2.502172,-0.3339233 c 0.845051,0 1.706491,0.1169756 2.501966,0.3339233 1.905616,-1.3020959 2.750667,-1.0349573 2.750667,-1.0349573 0.546979,1.3854743 0.198715,2.4206365 0.09936,2.6709765 0.646336,0.701034 1.027377,1.602422 1.027377,2.7041639 0,3.8728952 -2.336234,4.7240922 -4.573315,4.9746372 0.364653,0.317125 0.679319,0.917982 0.679319,1.869561 0,1.352082 -0.01639,2.43723 -0.01639,2.770948 0,0.267139 0.182326,0.584468 0.679319,0.484291 3.97676,-1.335693 6.843378,-5.108206 6.843378,-9.56516 C 20.016344,4.5069398 15.525998,0 10.008275,0 Z"
     fill="#ffffff"
     id="path2882"
     style="stroke-width:0.204861" />
</svg>
